<svg xmlns="http://www.w3.org/2000/svg" viewBox="0 0 16 16">
  <rect width="16" height="16" rx="2" fill="#F7DF1E"/>
  <path d="M6.5 11.8 C6.5 12.9 5.9 13.4 5 13.4 C4.1 13.4 3.6 12.9 3.3 12.3 L4.3 11.7 C4.5 12.1 4.7 12.4 5 12.4 C5.35 12.4 5.5 12.2 5.5 11.8 L5.5 7.5 L6.5 7.5 Z" fill="#323330"/>
  <path d="M9.5 13.4 C8.4 13.4 7.7 12.8 7.4 12.1 L8.4 11.5 C8.65 11.95 8.95 12.3 9.55 12.3 C10.1 12.3 10.4 12.0 10.4 11.55 C10.4 11.0 10.05 10.8 9.5 10.55 L9.2 10.42 C8.35 10.05 7.8 9.6 7.8 8.65 C7.8 7.75 8.5 7.1 9.55 7.1 C10.35 7.1 10.9 7.4 11.3 8.05 L10.35 8.65 C10.15 8.3 9.9 8.1 9.55 8.1 C9.2 8.1 9.0 8.3 9.0 8.65 C9.0 9.05 9.2 9.2 9.7 9.45 L10.0 9.58 C11.0 10.0 11.6 10.45 11.6 11.5 C11.6 12.65 10.7 13.4 9.5 13.4 Z" fill="#323330"/>
</svg>
