<svg xmlns="http://www.w3.org/2000/svg" viewBox="0 0 16 16">
  <rect width="16" height="16" rx="2" fill="#4F5B93"/>
  <ellipse cx="8" cy="8" rx="6" ry="3.5" fill="#8892BF"/>
  <path d="M4.5 6 L5.5 6 L5.5 7.5 L6.8 7.5 C7.6 7.5 8 7.9 8 8.5 C8 9.2 7.5 9.5 6.8 9.5 L4.5 9.5 Z M5.5 8.7 L6.7 8.7 C7.0 8.7 7.1 8.6 7.1 8.4 C7.1 8.2 7.0 8.1 6.7 8.1 L5.5 8.1 Z" fill="#4F5B93"/>
  <path d="M8.5 6 L9.5 6 L9.5 7.2 L10.5 7.2 L10.5 6 L11.5 6 L11.5 9.5 L10.5 9.5 L10.5 8.1 L9.5 8.1 L9.5 9.5 L8.5 9.5 Z" fill="#4F5B93"/>
</svg>
