<svg xmlns="http://www.w3.org/2000/svg" viewBox="0 0 16 16">
  <rect width="16" height="16" rx="2" fill="#3572A5"/>
  <!-- top snake body -->
  <path d="M8 2 C5 2 4 3 4 5 L4 7 L8 7 L8 8 L3 8 C3 8 2 8.5 2 11 C2 13 3 14 5 14 L6 14 L6 12 C6 10.5 7 10 8 10 L11 10 C12.5 10 13 9 13 8 L13 5 C13 3 12 2 10 2 Z" fill="#FFD43B"/>
  <!-- bottom snake body -->
  <path d="M8 14 C11 14 12 13 12 11 L12 9 L8 9 L8 8 L13 8 C13 8 14 7.5 14 5 C14 3 13 2 11 2 L10 2 L10 4 C10 5.5 9 6 8 6 L5 6 C3.5 6 3 7 3 8 L3 11 C3 13 4 14 6 14 Z" fill="#3572A5"/>
  <circle cx="6" cy="4.5" r="0.8" fill="#3572A5"/>
  <circle cx="10" cy="11.5" r="0.8" fill="#FFD43B"/>
</svg>
