<svg xmlns="http://www.w3.org/2000/svg" viewBox="0 0 16 16">
  <rect width="16" height="16" rx="2" fill="#3178C6"/>
  <path d="M3 8.5 L5.5 8.5 L5.5 14 L6.7 14 L6.7 8.5 L9.2 8.5 L9.2 7.5 L3 7.5 Z" fill="white"/>
  <path d="M11.5 13.4 C10.65 13.4 10.05 13.0 9.7 12.3 L10.6 11.75 C10.85 12.15 11.1 12.4 11.55 12.4 C11.95 12.4 12.2 12.2 12.2 11.75 C12.2 11.25 11.9 11.05 11.35 10.8 L11.05 10.67 C10.2 10.3 9.65 9.85 9.65 8.9 C9.65 8.05 10.3 7.4 11.3 7.4 C12.05 7.4 12.6 7.65 12.95 8.3 L12.05 8.9 C11.85 8.55 11.65 8.4 11.3 8.4 C10.95 8.4 10.75 8.6 10.75 8.9 C10.75 9.25 10.95 9.4 11.45 9.65 L11.75 9.78 C12.7 10.2 13.3 10.65 13.3 11.7 C13.3 12.8 12.45 13.4 11.5 13.4 Z" fill="white"/>
</svg>
