<svg xmlns="http://www.w3.org/2000/svg" viewBox="0 0 256 256"><path fill="#368FB9" d="M128 0C57.328 0 0 57.328 0 128s57.328 128 128 128s128-57.328 128-128S198.672 0 128 0"/><path fill="#FFF" d="M203.317 174.06c-7.907 1.878-11.91 3.608-21.695 9.983c-15.271 9.884-31.976 14.48-31.976 14.48s-1.383 2.076-5.387 3.015c-6.918 1.68-32.963 3.114-35.335 3.163c-6.376.05-10.28-1.63-11.367-4.25c-3.311-7.907 4.744-11.367 4.744-11.367s-1.779-1.087-2.817-2.076c-.939-.939-1.927-2.816-2.224-2.125c-1.235 3.015-1.878 10.379-5.189 13.69c-4.547 4.596-13.146 3.064-18.236.395c-5.585-2.965.395-9.933.395-9.933s-3.015 1.779-5.436-1.878c-2.175-3.36-4.2-9.094-3.657-16.16c.593-8.056 9.587-15.865 9.587-15.865s-1.581-11.91 3.608-24.117c4.695-11.12 17.347-20.065 17.347-20.065s-10.626-11.762-6.672-22.338c2.57-6.92 3.608-6.87 4.448-7.166c2.965-1.137 5.831-2.373 7.957-4.695c10.625-11.466 24.166-9.292 24.166-9.292s6.425-19.52 12.356-15.715c1.828 1.186 8.401 15.814 8.401 15.814s7.018-4.102 7.809-2.57c4.25 8.254 4.744 24.019 2.866 33.607c-3.163 15.814-11.07 24.315-14.233 29.652c-.741 1.236 8.5 5.14 14.332 21.3c5.387 14.777.593 27.182 1.433 28.566c.148.247.198.346.198.346s6.177.494 18.582-7.166c6.622-4.102 14.48-8.698 23.425-8.797c8.65-.149 9.094 9.983 2.57 11.564"/></svg>
